<mxGraphModel dx="0" dy="0" grid="1" gridSize="10" guides="1" tooltips="1" connect="1" arrows="1" fold="1" page="0" pageScale="1" background="none" math="0" shadow="0">
  <root>
    <mxCell id="0" />
    <mxCell id="1" parent="0" />
    <mxCell id="node10" parent="1" vertex="1" value="&lt;p style=&quot;margin:0px;margin-top:4px;text-align:center;&quot;&gt;&lt;b&gt;Attraction&lt;/b&gt;&lt;/p&gt;&lt;hr size=&quot;1&quot;/&gt;&lt;p style=&quot;margin:0 0 0 4px;line-height:1.6;&quot;&gt;- addr1: String&lt;br/&gt;- areaCode: Integer&lt;br/&gt;- addr2: String&lt;br/&gt;- firstImage2: String&lt;br/&gt;- firstImage1: String&lt;br/&gt;- homepage: String&lt;br/&gt;- contentType: ContentType&lt;br/&gt;- tel: String&lt;br/&gt;- mapLevel: Integer&lt;br/&gt;- siGunGuCode: Integer&lt;br/&gt;- no: Integer&lt;br/&gt;- overview: String&lt;br/&gt;- contentId: Integer&lt;br/&gt;- location: Location&lt;br/&gt;- title: String&lt;/p&gt;&lt;hr size=&quot;1&quot;/&gt;&lt;p style=&quot;margin:0 0 0 4px;line-height:1.6;&quot;&gt;+ getSiGunGuCode(): Integer&lt;br/&gt;+ getTel(): String&lt;br/&gt;+ getNo(): Integer&lt;br/&gt;+ getContentId(): Integer&lt;br/&gt;+ getAddr1(): String&lt;br/&gt;+ getAddr2(): String&lt;br/&gt;+ getTitle(): String&lt;br/&gt;+ getContentType(): ContentType&lt;br/&gt;+ getAreaCode(): Integer&lt;br/&gt;+ getFirstImage1(): String&lt;br/&gt;+ getLocation(): Location&lt;br/&gt;+ builder(): AttractionBuilder&lt;br/&gt;+ getHomepage(): String&lt;br/&gt;+ getOverview(): String&lt;br/&gt;+ getFirstImage2(): String&lt;br/&gt;+ getMapLevel(): Integer&lt;/p&gt;" style="verticalAlign=top;align=left;overflow=fill;fontSize=14;fontFamily=Helvetica;html=1;rounded=0;shadow=0;comic=0;labelBackgroundColor=none;strokeWidth=1;">
      <mxGeometry x="737" y="495" width="247" height="753" as="geometry" />
    </mxCell>
    <mxCell id="node9" parent="1" vertex="1" value="&lt;p style=&quot;margin:0px;margin-top:4px;text-align:center;&quot;&gt;&lt;b&gt;AttractionController&lt;/b&gt;&lt;/p&gt;&lt;hr size=&quot;1&quot;/&gt;&lt;p style=&quot;margin:0 0 0 4px;line-height:1.6;&quot;&gt;- log: Logger&lt;br/&gt;- attractionService: AttractionService&lt;/p&gt;&lt;hr size=&quot;1&quot;/&gt;&lt;p style=&quot;margin:0 0 0 4px;line-height:1.6;&quot;&gt;+ autoComplete(String): ResponseEntity&amp;lt;List&amp;lt;String&amp;gt;&amp;gt;&lt;br/&gt;+ search(AttractionSearchDto): ResponseEntity&amp;lt;PageResponseDto&amp;gt;&lt;br/&gt;+ getGuguns(Long): ResponseEntity&amp;lt;List&amp;lt;GugunDto&amp;gt;&amp;gt;&lt;br/&gt;+ getDetail(Integer): ResponseEntity&amp;lt;AttractionDto&amp;gt;&lt;/p&gt;" style="verticalAlign=top;align=left;overflow=fill;fontSize=14;fontFamily=Helvetica;html=1;rounded=0;shadow=0;comic=0;labelBackgroundColor=none;strokeWidth=1;">
      <mxGeometry x="-134" y="530" width="462" height="178" as="geometry" />
    </mxCell>
    <mxCell id="node0" parent="1" vertex="1" value="&lt;p style=&quot;margin:0px;margin-top:4px;text-align:center;&quot;&gt;&lt;i&gt;&amp;lt;&amp;lt;record&amp;gt;&amp;gt;&lt;/i&gt;&lt;br/&gt;&lt;b&gt;AttractionDto&lt;/b&gt;&lt;/p&gt;&lt;hr size=&quot;1&quot;/&gt;&lt;p style=&quot;margin:0 0 0 4px;line-height:1.6;&quot;&gt;- title: String&lt;br/&gt;- no: Integer&lt;br/&gt;- contentType: String&lt;br/&gt;- imgUrl: String&lt;br/&gt;- address: String&lt;br/&gt;- longitude: Double&lt;br/&gt;- latitude: Double&lt;/p&gt;&lt;hr size=&quot;1&quot;/&gt;&lt;p style=&quot;margin:0 0 0 4px;line-height:1.6;&quot;&gt;+ imgUrl(): String&lt;br/&gt;+ builder(): AttractionDtoBuilder&lt;br/&gt;+ title(): String&lt;br/&gt;+ contentType(): String&lt;br/&gt;+ no(): Integer&lt;br/&gt;+ address(): String&lt;br/&gt;+ longitude(): Double&lt;br/&gt;+ latitude(): Double&lt;/p&gt;" style="verticalAlign=top;align=left;overflow=fill;fontSize=14;fontFamily=Helvetica;html=1;rounded=0;shadow=0;comic=0;labelBackgroundColor=none;strokeWidth=1;">
      <mxGeometry x="445" y="1259" width="232" height="385" as="geometry" />
    </mxCell>
    <mxCell id="node4" parent="1" vertex="1" value="&lt;p style=&quot;margin:0px;margin-top:4px;text-align:center;&quot;&gt;&lt;b&gt;AttractionQueryRepository&lt;/b&gt;&lt;/p&gt;&lt;hr size=&quot;1&quot;/&gt;&lt;p style=&quot;margin:0 0 0 4px;line-height:1.6;&quot;&gt;- jpaQueryFactory: JPAQueryFactory&lt;br/&gt;- log: Logger&lt;/p&gt;&lt;hr size=&quot;1&quot;/&gt;&lt;p style=&quot;margin:0 0 0 4px;line-height:1.6;&quot;&gt;+ search(AttractionSearchDto): Page&amp;lt;Attraction&amp;gt;&lt;/p&gt;" style="verticalAlign=top;align=left;overflow=fill;fontSize=14;fontFamily=Helvetica;html=1;rounded=0;shadow=0;comic=0;labelBackgroundColor=none;strokeWidth=1;">
      <mxGeometry x="749" y="1525" width="342" height="118" as="geometry" />
    </mxCell>
    <mxCell id="node7" parent="1" vertex="1" value="&lt;p style=&quot;margin:0px;margin-top:4px;text-align:center;&quot;&gt;&lt;i&gt;&amp;lt;&amp;lt;interface&amp;gt;&amp;gt;&lt;/i&gt;&lt;br/&gt;&lt;b&gt;AttractionRepository&lt;/b&gt;&lt;/p&gt;&lt;hr size=&quot;1&quot;/&gt;&lt;p style=&quot;margin:0 0 0 4px;line-height:1.6;&quot;&gt;+ findById(Integer): Optional&amp;lt;Attraction&amp;gt;&lt;br/&gt;+ findAll(Pageable): Page&amp;lt;Attraction&amp;gt;&lt;/p&gt;" style="verticalAlign=top;align=left;overflow=fill;fontSize=14;fontFamily=Helvetica;html=1;rounded=0;shadow=0;comic=0;labelBackgroundColor=none;strokeWidth=1;">
      <mxGeometry x="88" y="1201" width="289" height="106" as="geometry" />
    </mxCell>
    <mxCell id="node12" parent="1" vertex="1" value="&lt;p style=&quot;margin:0px;margin-top:4px;text-align:center;&quot;&gt;&lt;i&gt;&amp;lt;&amp;lt;record&amp;gt;&amp;gt;&lt;/i&gt;&lt;br/&gt;&lt;b&gt;AttractionSearchDto&lt;/b&gt;&lt;/p&gt;&lt;hr size=&quot;1&quot;/&gt;&lt;p style=&quot;margin:0 0 0 4px;line-height:1.6;&quot;&gt;- gugun_code: Integer?&lt;br/&gt;- content_type_id: Integer?&lt;br/&gt;- page: Integer&lt;br/&gt;- sido_code: Integer?&lt;br/&gt;- radio: Double?&lt;br/&gt;- size: Integer&lt;br/&gt;- key: String?&lt;br/&gt;- word: String?&lt;/p&gt;&lt;hr size=&quot;1&quot;/&gt;&lt;p style=&quot;margin:0 0 0 4px;line-height:1.6;&quot;&gt;+ sido_code(): Integer?&lt;br/&gt;+ word(): String?&lt;br/&gt;+ builder(): AttractionSearchDtoBuilder&lt;br/&gt;+ page(): Integer&lt;br/&gt;+ gugun_code(): Integer?&lt;br/&gt;+ content_type_id(): Integer?&lt;br/&gt;+ radio(): Double?&lt;br/&gt;+ size(): Integer&lt;br/&gt;+ key(): String?&lt;/p&gt;" style="verticalAlign=top;align=left;overflow=fill;fontSize=14;fontFamily=Helvetica;html=1;rounded=0;shadow=0;comic=0;labelBackgroundColor=none;strokeWidth=1;">
      <mxGeometry x="399" y="710" width="275" height="431" as="geometry" />
    </mxCell>
    <mxCell id="node6" parent="1" vertex="1" value="&lt;p style=&quot;margin:0px;margin-top:4px;text-align:center;&quot;&gt;&lt;i&gt;&amp;lt;&amp;lt;record&amp;gt;&amp;gt;&lt;/i&gt;&lt;br/&gt;&lt;b&gt;AttractionSearchRequestDto&lt;/b&gt;&lt;/p&gt;&lt;hr size=&quot;1&quot;/&gt;&lt;p style=&quot;margin:0 0 0 4px;line-height:1.6;&quot;&gt;- pageNumber: Long&lt;br/&gt;- limit: Long&lt;br/&gt;- category: String&lt;br/&gt;- gugun: String&lt;br/&gt;- keyword: String&lt;br/&gt;- sido: String&lt;/p&gt;&lt;hr size=&quot;1&quot;/&gt;&lt;p style=&quot;margin:0 0 0 4px;line-height:1.6;&quot;&gt;+ builder(): AttractionSearchRequestDtoBuilder&lt;br/&gt;+ sido(): String&lt;br/&gt;+ category(): String&lt;br/&gt;+ pageNumber(): Long&lt;br/&gt;+ limit(): Long&lt;br/&gt;+ gugun(): String&lt;br/&gt;+ keyword(): String&lt;/p&gt;" style="verticalAlign=top;align=left;overflow=fill;fontSize=14;fontFamily=Helvetica;html=1;rounded=0;shadow=0;comic=0;labelBackgroundColor=none;strokeWidth=1;">
      <mxGeometry x="405" y="1707" width="327" height="339" as="geometry" />
    </mxCell>
    <mxCell id="node8" parent="1" vertex="1" value="&lt;p style=&quot;margin:0px;margin-top:4px;text-align:center;&quot;&gt;&lt;b&gt;AttractionService&lt;/b&gt;&lt;/p&gt;&lt;hr size=&quot;1&quot;/&gt;&lt;p style=&quot;margin:0 0 0 4px;line-height:1.6;&quot;&gt;- attractionQueryRepository: AttractionQueryRepository&lt;br/&gt;~ prefixTrie: Trie&lt;br/&gt;- attractionRepository: AttractionRepository&lt;br/&gt;- log: Logger&lt;br/&gt;~ chosungTrie: Trie&lt;br/&gt;- gugunRepository: GugunRepository&lt;br/&gt;~ titiles: List&amp;lt;String&amp;gt;&lt;/p&gt;&lt;hr size=&quot;1&quot;/&gt;&lt;p style=&quot;margin:0 0 0 4px;line-height:1.6;&quot;&gt;- searchAndGetTitle(String): List&amp;lt;String&amp;gt;&lt;br/&gt;- toDto(Attraction): AttractionDto&lt;br/&gt;+ search(AttractionSearchDto): Page&amp;lt;AttractionDto&amp;gt;&lt;br/&gt;+ autoComplete(String): List&amp;lt;String&amp;gt;&lt;br/&gt;+ getById(Integer): AttractionDto&lt;br/&gt;+ getGuguns(Long): List&amp;lt;GugunDto&amp;gt;&lt;/p&gt;" style="verticalAlign=top;align=left;overflow=fill;fontSize=14;fontFamily=Helvetica;html=1;rounded=0;shadow=0;comic=0;labelBackgroundColor=none;strokeWidth=1;">
      <mxGeometry x="908" y="90" width="384" height="339" as="geometry" />
    </mxCell>
    <mxCell id="node2" parent="1" vertex="1" value="&lt;p style=&quot;margin:0px;margin-top:4px;text-align:center;&quot;&gt;&lt;b&gt;ContentType&lt;/b&gt;&lt;/p&gt;&lt;hr size=&quot;1&quot;/&gt;&lt;p style=&quot;margin:0 0 0 4px;line-height:1.6;&quot;&gt;- contentTypeId: Integer&lt;br/&gt;- contentTypeName: String&lt;/p&gt;&lt;hr size=&quot;1&quot;/&gt;&lt;p style=&quot;margin:0 0 0 4px;line-height:1.6;&quot;&gt;+ getContentTypeId(): Integer&lt;br/&gt;+ getContentTypeName(): String&lt;br/&gt;+ builder(): ContentTypeBuilder&lt;/p&gt;" style="verticalAlign=top;align=left;overflow=fill;fontSize=14;fontFamily=Helvetica;html=1;rounded=0;shadow=0;comic=0;labelBackgroundColor=none;strokeWidth=1;">
      <mxGeometry x="810" y="1308" width="238" height="155" as="geometry" />
    </mxCell>
    <mxCell id="node14" parent="1" vertex="1" value="&lt;p style=&quot;margin:0px;margin-top:4px;text-align:center;&quot;&gt;&lt;i&gt;&amp;lt;&amp;lt;interface&amp;gt;&amp;gt;&lt;/i&gt;&lt;br/&gt;&lt;b&gt;ContentTypeRepository&lt;/b&gt;&lt;/p&gt;&lt;hr size=&quot;1&quot;/&gt;&lt;p style=&quot;margin:0 0 0 4px;line-height:1.6;&quot;&gt;+ findByContentTypeId(Integer): Optional&amp;lt;ContentType&amp;gt;&lt;/p&gt;" style="verticalAlign=top;align=left;overflow=fill;fontSize=14;fontFamily=Helvetica;html=1;rounded=0;shadow=0;comic=0;labelBackgroundColor=none;strokeWidth=1;">
      <mxGeometry x="-20" y="1391" width="391" height="78" as="geometry" />
    </mxCell>
    <mxCell id="node5" parent="1" vertex="1" value="&lt;p style=&quot;margin:0px;margin-top:4px;text-align:center;&quot;&gt;&lt;b&gt;GuGun&lt;/b&gt;&lt;/p&gt;&lt;hr size=&quot;1&quot;/&gt;&lt;p style=&quot;margin:0 0 0 4px;line-height:1.6;&quot;&gt;- gugunCode: Integer&lt;br/&gt;- gugunName: String&lt;br/&gt;- no: Integer&lt;br/&gt;- sidoCode: Integer&lt;/p&gt;&lt;hr size=&quot;1&quot;/&gt;&lt;p style=&quot;margin:0 0 0 4px;line-height:1.6;&quot;&gt;+ getNo(): Integer&lt;br/&gt;+ getSidoCode(): Integer&lt;br/&gt;+ getGugunCode(): Integer&lt;br/&gt;+ getGugunName(): String&lt;br/&gt;+ builder(): GuGunBuilder&lt;/p&gt;" style="verticalAlign=top;align=left;overflow=fill;fontSize=14;fontFamily=Helvetica;html=1;rounded=0;shadow=0;comic=0;labelBackgroundColor=none;strokeWidth=1;">
      <mxGeometry x="521" y="-14" width="203" height="247" as="geometry" />
    </mxCell>
    <mxCell id="node11" parent="1" vertex="1" value="&lt;p style=&quot;margin:0px;margin-top:4px;text-align:center;&quot;&gt;&lt;i&gt;&amp;lt;&amp;lt;record&amp;gt;&amp;gt;&lt;/i&gt;&lt;br/&gt;&lt;b&gt;GugunDto&lt;/b&gt;&lt;/p&gt;&lt;hr size=&quot;1&quot;/&gt;&lt;p style=&quot;margin:0 0 0 4px;line-height:1.6;&quot;&gt;- text: String&lt;br/&gt;- value: Integer&lt;/p&gt;&lt;hr size=&quot;1&quot;/&gt;&lt;p style=&quot;margin:0 0 0 4px;line-height:1.6;&quot;&gt;+ builder(): GugunDtoBuilder&lt;br/&gt;+ value(): Integer&lt;br/&gt;+ text(): String&lt;/p&gt;" style="verticalAlign=top;align=left;overflow=fill;fontSize=14;fontFamily=Helvetica;html=1;rounded=0;shadow=0;comic=0;labelBackgroundColor=none;strokeWidth=1;">
      <mxGeometry x="96" y="1521" width="212" height="155" as="geometry" />
    </mxCell>
    <mxCell id="node13" parent="1" vertex="1" value="&lt;p style=&quot;margin:0px;margin-top:4px;text-align:center;&quot;&gt;&lt;i&gt;&amp;lt;&amp;lt;interface&amp;gt;&amp;gt;&lt;/i&gt;&lt;br/&gt;&lt;b&gt;GugunRepository&lt;/b&gt;&lt;/p&gt;&lt;hr size=&quot;1&quot;/&gt;&lt;p style=&quot;margin:0 0 0 4px;line-height:1.6;&quot;&gt;+ findAllBySidoCode(Long): List&amp;lt;GuGun&amp;gt;&lt;/p&gt;" style="verticalAlign=top;align=left;overflow=fill;fontSize=14;fontFamily=Helvetica;html=1;rounded=0;shadow=0;comic=0;labelBackgroundColor=none;strokeWidth=1;">
      <mxGeometry x="413" y="372" width="291" height="78" as="geometry" />
    </mxCell>
    <mxCell id="node1" parent="1" vertex="1" value="&lt;p style=&quot;margin:0px;margin-top:4px;text-align:center;&quot;&gt;&lt;b&gt;Location&lt;/b&gt;&lt;/p&gt;&lt;hr size=&quot;1&quot;/&gt;&lt;p style=&quot;margin:0 0 0 4px;line-height:1.6;&quot;&gt;- longitude: Double&lt;br/&gt;- latitude: Double&lt;/p&gt;&lt;hr size=&quot;1&quot;/&gt;&lt;p style=&quot;margin:0 0 0 4px;line-height:1.6;&quot;&gt;+ longitude(): Double&lt;br/&gt;+ builder(): LocationBuilder&lt;br/&gt;+ latitude(): Double&lt;/p&gt;" style="verticalAlign=top;align=left;overflow=fill;fontSize=14;fontFamily=Helvetica;html=1;rounded=0;shadow=0;comic=0;labelBackgroundColor=none;strokeWidth=1;">
      <mxGeometry x="1136" y="1284" width="201" height="155" as="geometry" />
    </mxCell>
    <mxCell id="node3" parent="1" vertex="1" value="&lt;p style=&quot;margin:0px;margin-top:4px;text-align:center;&quot;&gt;&lt;b&gt;Sido&lt;/b&gt;&lt;/p&gt;&lt;hr size=&quot;1&quot;/&gt;&lt;p style=&quot;margin:0 0 0 4px;line-height:1.6;&quot;&gt;- no: Integer&lt;br/&gt;- sidoName: String&lt;br/&gt;- sidoCode: Integer&lt;/p&gt;&lt;hr size=&quot;1&quot;/&gt;&lt;p style=&quot;margin:0 0 0 4px;line-height:1.6;&quot;&gt;+ getNo(): Integer&lt;br/&gt;+ getSidoCode(): Integer&lt;br/&gt;+ getSidoName(): String&lt;br/&gt;+ builder(): SidoBuilder&lt;/p&gt;" style="verticalAlign=top;align=left;overflow=fill;fontSize=14;fontFamily=Helvetica;html=1;rounded=0;shadow=0;comic=0;labelBackgroundColor=none;strokeWidth=1;">
      <mxGeometry x="154" y="142" width="188" height="201" as="geometry" />
    </mxCell>
  </root>
</mxGraphModel>